<svg width="16" height="16" viewBox="0 0 16 16" fill="none" xmlns="http://www.w3.org/2000/svg">
<g clip-path="url(#clip0_203_532)">
<path d="M7.99993 0.353455C6.13833 0.353521 4.33746 1.01605 2.91966 2.22239C1.50179 3.42872 0.559459 5.10025 0.261259 6.93785C-0.036941 8.77539 0.328459 10.6591 1.29206 12.252C2.25559 13.8447 3.75453 15.0427 5.52059 15.6315C5.91259 15.7001 6.05959 15.4649 6.05959 15.2591C6.05959 15.0729 6.04979 14.4555 6.04979 13.7989C4.07999 14.1615 3.57039 13.3188 3.41359 12.8778C3.23959 12.4489 2.96379 12.0689 2.60999 11.7704C2.33559 11.6234 1.94359 11.2608 2.60019 11.251C2.85093 11.2782 3.09133 11.3655 3.30119 11.5053C3.51099 11.6452 3.68406 11.8337 3.80559 12.0546C3.91279 12.2472 4.05699 12.4168 4.22986 12.5536C4.40273 12.6904 4.60093 12.7918 4.81306 12.8518C5.02519 12.9119 5.24706 12.9295 5.46599 12.9037C5.68493 12.8779 5.89666 12.8092 6.08893 12.7014C6.12286 12.3028 6.30053 11.9301 6.58879 11.6528C4.84439 11.4568 3.02159 10.7806 3.02159 7.78179C3.01059 7.00265 3.29806 6.24879 3.82519 5.67485C3.58553 4.99765 3.61353 4.25445 3.90359 3.59725C3.90359 3.59725 4.56013 3.39145 6.05959 4.40085C7.34239 4.04805 8.69666 4.04805 9.97953 4.40085C11.4789 3.38165 12.1355 3.59725 12.1355 3.59725C12.4256 4.25445 12.4537 4.99765 12.2139 5.67485C12.7425 6.24779 13.0304 7.00239 13.0175 7.78179C13.0175 10.7904 11.1849 11.4568 9.44053 11.6528C9.62759 11.8424 9.77166 12.0701 9.86299 12.3203C9.95433 12.5707 9.99073 12.8377 9.96973 13.1032C9.96973 14.1519 9.95993 14.9945 9.95993 15.2591C9.95993 15.4649 10.1069 15.7099 10.4989 15.6315C12.2619 15.038 13.7565 13.8372 14.7159 12.2436C15.6755 10.6499 16.0373 8.76712 15.7371 6.93132C15.4368 5.09559 14.4939 3.42625 13.0767 2.22139C11.6595 1.01645 9.86013 0.354455 7.99993 0.353455Z" fill="black"/>
</g>
<defs>
<clipPath id="clip0_203_532">
<rect width="16" height="16" fill="white"/>
</clipPath>
</defs>
</svg>
